<svg xmlns="http://www.w3.org/2000/svg" style="display:none">
  <defs>
    <symbol id="icon-chevron-down" viewBox="0 0 24 24">
      <path d="M6 9l6 6 6-6" stroke-linecap="round" stroke-linejoin="round"/>
    </symbol>

    <symbol id="icon-bot" viewBox="0 0 24 24">
      <rect x="4" y="8" width="16" height="11" rx="4"/>
      <path d="M12 8V4" stroke-linecap="round"/>
      <circle cx="12" cy="3" r="1.2"/>
      <circle cx="9" cy="13.5" r="1.2" fill="currentColor" stroke="none"/>
      <circle cx="15" cy="13.5" r="1.2" fill="currentColor" stroke="none"/>
      <path d="M2 12h2M20 12h2" stroke-linecap="round"/>
    </symbol>

    <symbol id="icon-pulse" viewBox="0 0 24 24">
      <path d="M3 12h4l2-7 4 14 2-7h6" stroke-linecap="round" stroke-linejoin="round"/>
    </symbol>

    <symbol id="icon-storage" viewBox="0 0 24 24">
      <path d="M4 7a4 4 0 0 1 4-4h5l7 7v9a4 4 0 0 1-4 4H8a4 4 0 0 1-4-4z" stroke-linejoin="round"/>
      <path d="M13 3v5a2 2 0 0 0 2 2h5" stroke-linejoin="round"/>
    </symbol>

    <symbol id="icon-telegram" viewBox="0 0 24 24">
      <path d="M21 4 3 11.2l6 2.1m12-9.3L15 20l-4.5-6.7m10.5-9.3-11 6.7" stroke-linecap="round" stroke-linejoin="round"/>
    </symbol>

    <symbol id="icon-bell" viewBox="0 0 24 24">
      <path d="M6 9a6 6 0 0 1 12 0c0 4 1.5 5.5 2 6H4c.5-.5 2-2 2-6Z" stroke-linejoin="round"/>
      <path d="M10 19a2 2 0 0 0 4 0" stroke-linecap="round"/>
    </symbol>

    <symbol id="icon-check" viewBox="0 0 24 24">
      <path d="M5 12.5 10 17 19 7" stroke-linecap="round" stroke-linejoin="round"/>
    </symbol>

    <symbol id="icon-arrow-right" viewBox="0 0 24 24">
      <path d="M9 6l6 6-6 6" stroke-linecap="round" stroke-linejoin="round"/>
    </symbol>

    <symbol id="icon-webhook" viewBox="0 0 24 24">
      <circle cx="6" cy="7" r="2.4"/>
      <circle cx="18" cy="7" r="2.4"/>
      <circle cx="12" cy="18" r="2.4"/>
      <path d="M8.2 8.2 11 16M15.8 8.2 13 16M8.4 7h7.2" stroke-linecap="round"/>
    </symbol>

    <symbol id="icon-menu" viewBox="0 0 24 24">
      <path d="M4 7h16M4 12h16M4 17h16" stroke-linecap="round"/>
    </symbol>

    <symbol id="icon-close" viewBox="0 0 24 24">
      <path d="M6 6l12 12M18 6 6 18" stroke-linecap="round"/>
    </symbol>
  </defs>
</svg>
